# Blender v2.79 (sub 0) OBJ File: 'bookshelf.blend'
# www.blender.org
mtllib bookshelf.mtl
o book_shelf_Cube
v 0.254000 0.070808 -0.762000
v 0.254000 0.070808 0.762000
v -0.254000 0.085443 0.732730
v -0.254000 0.085443 -0.732730
v 0.254000 0.832808 -0.761999
v 0.254000 0.832808 0.762000
v -0.254000 0.818173 0.732730
v -0.254000 0.818173 -0.732730
v -0.254000 0.070808 0.762000
v -0.254000 0.070808 -0.762000
v -0.254000 0.832808 0.761999
v -0.254000 0.832808 -0.762000
v 0.228454 0.085443 0.732730
v 0.228454 0.085443 -0.732730
v 0.228454 0.818173 0.732730
v 0.228454 0.818173 -0.732730
v 0.254000 0.439369 -0.761999
v 0.254000 0.439369 0.762000
v -0.254000 0.439369 0.761999
v -0.254000 0.439369 -0.762000
v -0.254000 0.442286 0.732730
v -0.254000 0.442286 -0.732730
v 0.228454 0.442286 0.732730
v 0.228454 0.442286 -0.732730
v 0.254000 0.479531 -0.761999
v 0.254000 0.479531 0.762000
v -0.254000 0.479531 0.761999
v -0.254000 0.479531 -0.762000
v -0.254000 0.480904 0.732730
v -0.254000 0.480904 -0.732730
v 0.228454 0.480904 0.732730
v 0.228454 0.480904 -0.732730
v -0.234904 0.442286 0.732730
v -0.234904 0.442286 -0.732730
v -0.234904 0.480904 0.732730
v -0.234904 0.480904 -0.732730
vn 0.0000 -1.0000 -0.0000
vn 0.0000 1.0000 0.0000
vn 1.0000 0.0000 0.0000
vn -0.0000 -0.0000 1.0000
vn 0.0000 0.0000 -1.0000
vn -1.0000 0.0000 -0.0000
usemtl Material
s off
f 1//1 2//1 9//1 10//1
f 5//2 12//2 11//2 6//2
f 25//3 5//3 6//3 26//3
f 26//4 6//4 11//4 27//4
f 22//4 4//4 14//4 24//4
f 17//5 1//5 10//5 20//5
f 3//6 4//6 10//6 9//6
f 21//6 3//6 9//6 19//6
f 30//6 8//6 12//6 28//6
f 8//6 7//6 11//6 12//6
f 31//6 15//6 16//6 32//6
f 4//2 3//2 13//2 14//2
f 7//1 8//1 16//1 15//1
f 29//5 7//5 15//5 31//5
f 3//5 21//5 23//5 13//5
f 13//6 23//6 24//6 14//6
f 4//6 22//6 20//6 10//6
f 29//6 21//6 19//6 27//6
f 25//5 17//5 20//5 28//5
f 30//4 22//4 24//4 32//4
f 2//4 18//4 19//4 9//4
f 1//3 17//3 18//3 2//3
f 8//4 30//4 32//4 16//4
f 5//5 25//5 28//5 12//5
f 7//6 29//6 27//6 11//6
f 21//5 29//5 31//5 23//5
f 31//2 32//2 36//2 35//2
f 22//6 30//6 28//6 20//6
f 18//4 26//4 27//4 19//4
f 17//3 25//3 26//3 18//3
f 33//6 35//6 36//6 34//6
f 23//4 31//4 35//4 33//4
f 24//1 23//1 33//1 34//1
f 32//5 24//5 34//5 36//5
